<?xml version="1.0" encoding="utf-8"?>
<!-- Svg Vector Icons : http://www.onlinewebfonts.com/icon -->
<!DOCTYPE svg PUBLIC "-//W3C//DTD SVG 1.1//EN" "http://www.w3.org/Graphics/SVG/1.1/DTD/svg11.dtd">
<svg version="1.1" xmlns="http://www.w3.org/2000/svg" xmlns:xlink="http://www.w3.org/1999/xlink" x="0px" y="0px" viewBox="0 0 1000 1000" enable-background="new 0 0 1000 1000" xml:space="preserve" fill="white">
<metadata> Svg Vector Icons : http://www.onlinewebfonts.com/icon </metadata>
<g><g><path d="M727.4,341.6c0,121.2-138.8,167.8-168.6,211.5c-22.3,32.5-14.9,78.3-76.4,78.3c-40.1,0-59.6-32.6-59.6-62.4c0-111,163-136,163-227.4c0-50.3-33.6-80.1-89.5-80.1c-119.3,0-72.7,123-163,123c-32.7,0-60.6-19.6-60.6-56.8c0-91.4,104.3-172.4,218-172.4C609.9,155.2,727.4,210.2,727.4,341.6z M486.1,691.9c-41.9,0-76.4,34.5-76.4,76.4c0,41.9,34.5,76.4,76.4,76.4c41.9,0,76.4-34.5,76.4-76.4C562.4,726.4,527.9,691.9,486.1,691.9z M990,500c0,270.2-219.8,490-490,490C229.8,990,10,770.2,10,500S229.8,10,500,10C770.2,10,990,229.8,990,500z M898.1,500c0-219.5-178.6-398.1-398.1-398.1c-219.5,0-398.1,178.6-398.1,398.1S280.5,898.1,500,898.1C719.5,898.1,898.1,719.5,898.1,500z"/></g><g></g><g></g><g></g><g></g><g></g><g></g><g></g><g></g><g></g><g></g><g></g><g></g><g></g><g></g><g></g></g>
</svg>